<?xml version="1.0" standalone="no"?>
<!DOCTYPE svg PUBLIC "-//W3C//DTD SVG 20010904//EN"
 "http://www.w3.org/TR/2001/REC-SVG-20010904/DTD/svg10.dtd">
<svg version="1.0" xmlns="http://www.w3.org/2000/svg"
 width="512.000000pt" height="512.000000pt" viewBox="0 0 512.000000 512.000000"
 preserveAspectRatio="xMidYMid meet">
<metadata>
Created by potrace 1.14, written by Peter Selinger 2001-2017
</metadata>
<g transform="translate(0.000000,512.000000) scale(0.100000,-0.100000)"
fill="#000000" stroke="none">
<path d="M2245 5094 c-304 -36 -628 -138 -895 -280 -113 -61 -324 -201 -413
-275 -228 -190 -461 -464 -598 -702 -81 -142 -216 -453 -233 -538 -2 -13 -11
-46 -20 -74 -94 -310 -111 -780 -41 -1148 74 -390 244 -762 503 -1097 75 -97
286 -312 382 -389 36 -29 73 -59 83 -67 32 -26 225 -154 232 -154 4 0 19 -8
33 -19 44 -31 219 -116 327 -159 222 -88 446 -143 700 -171 175 -20 523 -8
695 23 14 3 50 9 80 15 161 29 398 106 558 181 383 181 630 373 925 720 66 78
205 294 271 421 149 288 246 612 274 919 9 102 9 397 -1 495 -33 358 -154 727
-339 1040 -358 602 -942 1041 -1598 1201 -8 2 -33 8 -55 13 -58 15 -208 40
-300 50 -117 13 -443 10 -570 -5z"/>
</g>
</svg>
